<svg xmlns="http://www.w3.org/2000/svg" width="116" height="19" viewBox="0 0 116 19">
    <g fill="#FFF" fill-rule="nonzero">
        <path d="M5.096 4.314c-.334 0-1.183.075-1.57.176v4.544c.773.15 1.57.15 2.523.15C7.49 9.184 8.7 8.381 8.7 6.85c0-2.084-1.08-2.536-2.625-2.536h-.979zm6.538 14.51c-1.132 0-2.11-.426-2.574-1.531L7.748 14.18c-.798-1.882-1.545-2.008-2.471-2.159-.772-.125-1.39-.225-1.75-.225v6.903H2.393C.824 18.699 0 17.77 0 16.389V1.98c.746-.275 3.217-.627 4.53-.627h1.956c3.501 0 5.792 2.058 5.792 4.945 0 2.335-1.57 4.268-3.63 4.57.953.376 1.75 1.405 2.188 2.41l1.416 3.213c.438 1.004.875 1.481 1.08 1.782-.41.427-.72.553-1.698.553zM22.523 12.8h-1.236c-2.625 0-3.372.602-3.372 1.707 0 1.054.875 1.681 2.394 1.681 1.493 0 2.214-.703 2.214-2.083V12.8zm-1.879 6.125h-.695c-3.295 0-5.56-1.807-5.56-4.293 0-2.41 1.802-4.242 6.898-4.242h1.21v-.176c0-1.908-.927-2.486-2.986-2.486-2.497 0-3.886.93-4.401 1.557h-.13v-1.08c0-1.506 1.391-3.313 5.046-3.313 3.089 0 5.869 1.405 5.869 6.074v3.113c0 2.863-2.162 4.846-5.251 4.846zM32.762 18.825c-2.677 0-4.144-1.481-4.144-4.218V5.444h.978c1.545 0 2.47.803 2.47 2.51v6.326c0 1.356.593 1.783 2.112 1.783h.643v.728c0 1.456-.592 2.034-2.059 2.034zM30.317 4.189c-1.107 0-2.008-.904-2.008-1.984S29.21.247 30.317.247s2.033.879 2.033 1.958c0 1.08-.926 1.984-2.033 1.984zM40.947 19c-2.548 0-4.453-1.28-4.453-2.66v-1.533h.129c.746.678 2.523 1.281 4.17 1.281 1.698 0 2.522-.477 2.522-1.481 0-.778-.489-1.155-2.883-1.481-2.934-.402-4.35-1.532-4.35-3.59 0-2.535 2.343-4.694 5.895-4.694 3.14 0 4.427 1.58 4.427 2.886v1.28h-.129c-.72-.702-2.316-1.254-3.964-1.254-2.11 0-2.78.627-2.78 1.505 0 .678.412.955 2.78 1.331 2.883.452 4.427 1.682 4.427 3.841 0 2.862-2.059 4.569-5.79 4.569M55.258 7.653c-1.673 0-2.83 1.33-2.908 2.887l-.026.452h1.544c3.27 0 4.016-.352 4.016-1.305 0-1.356-1.03-2.034-2.626-2.034zm-.643 5.724H52.35c.257 1.707 1.853 2.787 3.887 2.787 1.44 0 3.14-.277 4.247-1.281h.128v1.055c0 1.732-1.21 3.062-5.02 3.062-3.448 0-6.82-2.66-6.82-6.803 0-4.519 2.831-7.355 6.795-7.355 2.883 0 5.56 2.008 5.56 5.246 0 2.485-1.93 3.29-6.512 3.29zM76.751 18.699c-1.364 0-2.857-.402-5.044-4.544l-3.218-6.1c-.49-.954-.876-1.607-1.184-2.009V18.7h-1.39c-1.03 0-2.137-.753-2.137-2.26V1.503h1.75c2.317 0 3.81 1.205 4.995 3.514l3.088 6.025c.36.703.772 1.732 1.03 2.31V1.502h1.57c.901 0 1.93.879 1.93 1.984v15.213h-1.39M87.407 7.854c-1.981 0-2.986 1.607-2.986 3.84 0 2.687 1.005 4.293 3.295 4.293 2.008 0 2.986-1.606 2.986-3.815 0-2.711-1.03-4.318-3.295-4.318zm.31-3.012c4.17 0 6.563 3.263 6.563 6.853 0 4.067-2.394 7.305-6.873 7.305-4.17 0-6.563-3.238-6.563-6.828 0-4.067 2.394-7.33 6.872-7.33zM114.177 12.197c-.949 2.888-2.317 5.347-3.217 6.652h-.567c-1.08 0-1.905-.978-2.368-1.807-.85-1.506-1.904-4.017-2.291-6.076-.437 2.06-2.059 6.252-3.294 7.883h-.464c-1.03 0-2.007-1.004-2.47-1.807-2.009-3.464-3.347-7.38-3.965-11.9h1.853c1.185 0 1.88.88 2.008 1.632.412 2.31 1.056 4.87 2.214 7.33 1.26-2.685 1.956-5.597 2.625-8.46h1.133c1.055 0 2.11.428 2.445 1.909.412 1.832 1.262 4.644 2.24 6.552 1.312-2.837 2.059-9.43 2.6-12.492h1.44c.979 0 1.674.426 1.674 1.456 0 .527-.682 6.349-1.596 9.128"/>
    </g>
</svg>
