<svg xmlns="http://www.w3.org/2000/svg" width="221" height="429" viewBox="0 0 221 429">
    <defs>
        <linearGradient id="a" x1="62.574%" x2=".255%" y1="39.991%" y2="49.977%">
            <stop offset="0%" stop-opacity="0"/>
            <stop offset="100%"/>
        </linearGradient>
    </defs>
    <g fill="none" fill-rule="evenodd">
        <g>
            <circle cx="106.5" cy="106.5" r="106.5" fill="#FFF"/>
            <path stroke="#DEDEDE" stroke-linecap="round" stroke-width="5" d="M52.5 73.5h107"/>
            <circle cx="137" cy="74" r="10" fill="#FFF" stroke="#DEDEDE" stroke-width="5"/>
        </g>
        <g stroke="#DEDEDE" stroke-width="5" transform="translate(52 134)">
            <path stroke-linecap="round" d="M.5 9.5h107"/>
            <circle cx="84" cy="10" r="10" fill="#FFF"/>
        </g>
        <g stroke="#DEDEDE" stroke-width="5" transform="translate(52 99)">
            <path stroke-linecap="round" d="M.5 9.5h107"/>
            <circle cx="22" cy="10" r="10" fill="#FFF"/>
        </g>
        <g transform="translate(121 141)">
            <path fill="url(#a)" d="M21.102 113.02l32.924 1.489 12.307 11.982-36.155-.901z" opacity=".15" transform="scale(1 -1) rotate(-30 -691.538 -102.385)"/>
            <path fill="#DD9C80" d="M27.987 157.878c-3.647 10.323-4.88 23.592-3.697 39.81 3.728 21.472 8.284 40.887 13.667 58.245.5 2.347.918 4.199 1.238 5.268.467 2.468-1.715 5.56-6.545 9.276-.888.889-.662 1.45.68 1.682 9.908-3.539 9.747-3.939 13.923-5.626 1.77-.715-2.889-3.125-2.83-7.004a77.232 77.232 0 0 0-1.654-17.159l-.002.109c0-8.292-2.262-15.968-2.262-35.923 3.04-22.805 4.367-42.823 4.367-42.823.292 0 5.937 5.695 6.7 8.612 2.523 9.64 5.958 28.207 14.466 43.523 3.566 6.42 10.35 14.839 20.354 25.257 1.46 2.008 2.631 3.582 3.376 4.448 1.43 2.064.695 5.777-2.207 11.137-.45 1.172-.015 1.592 1.305 1.26 7.613-7.264 7.303-7.564 10.432-10.804 1.325-1.373-3.96-1.668-6.063-5.248a213.54 213.54 0 0 0-5.472-8.823c-4.627-10.382-8.387-19.228-11.28-26.54-3.21-8.108-4.987-22.382-5.33-42.822l-43.166-5.855zM34.75 12.099l-.022-.046c-.218-.41-.553-3.777-2.785-7.128-.614-.922-1.919-2.105-3.914-3.55a.519.519 0 0 0-.814.324c-.09.482.085.976.46 1.292.969.818 1.619 1.539 1.95 2.162.404.76.663 1.462.78 2.108a.629.629 0 0 1-1.038.58l-.885-.79a.73.73 0 0 0-1.185.752l.17.578 3.682 5.575.404-.103c2.352-.617 3.418-1.201 3.197-1.754zM2.034 16.174l-.006-.05C1.995 15.661.495 12.628.613 8.603.645 7.496 1.125 5.8 2.05 3.518a.519.519 0 0 1 .862-.156c.333.36.445.872.295 1.34-.388 1.206-.558 2.162-.509 2.866.06.858.212 1.591.456 2.201a.629.629 0 0 0 1.188-.058l.331-1.138a.73.73 0 0 1 1.404.008l.162.58-.168 6.68-.398.127c-2.322.723-3.535.792-3.64.206z"/>
            <path fill="#2F2E41" d="M71.04 145.55l-47.17 6.857-2.516 25.065h24.842l1.371-9.01a.629.629 0 0 1 1.25.046l.681 8.964 25.63-3.46-4.089-28.462z"/>
            <path fill="#DD9C80" d="M39.907 56.39c-2.706 4.218-4.007 7.625-3.9 10.221.105 2.597 1.405 4.536 3.9 5.818v9.75h15.094v-26.26l-15.094.47z"/>
            <ellipse cx="39.623" cy="61.797" fill="#000" rx="1" ry="1" transform="scale(-1 1) rotate(-14 0 384.498)"/>
            <path fill="#D4D1E1" d="M36.006 10.693l23.368 41.588v31.59l12.639 63.504-49.057 6.29-.115-3.453c-.452-14.459-.42-24.924.095-31.396l.02-.25c.576-6.947 2.253-15.48 5.031-25.6L2.283 58.882A11.323 11.323 0 0 1 0 52.064V16.858l7.862-3.46 3.897 35.853a11.322 11.322 0 0 0 3.41 6.939L38.05 78.185h1.887v2.83c1.258.776 3.113 1.164 5.564 1.164 1.448 0 3.59-.136 6.424-.406C53.976 78.95 55 76.066 55 73.12c0-4.717-2.63-10.64-7.891-17.77L28.87 13.399l7.136-2.705z"/>
            <path fill="#000" d="M42.737 64.252c2.935-1.362 4.717-1.362 5.346 0 .629 1.363-1.153 2.516-5.346 3.46l5.346 9.592c.839 2.348.839 3.973 0 4.875-2.582 2.736-8.318 4.89-9.434 9.75-1.116 4.859 2.703 8.176 4.088 12.58 0 3.773-7.13 10.142-7.704 16.668-.575 6.525 1.586 10.207 5.031 13.68 1.712 1.726 8.615 5.242 14.937 6.133 6.407.903 12.235-.835 14.151-1.572 2.538-.977 4.635-2.968 6.29-5.976l1.886-12.265c4.193-2.706 6.29-7.528 6.29-14.467 0-6.166-5.338-14.012-16.013-23.54l-.696-.616a8.177 8.177 0 0 1-2.666-7.467c1.014-6.153.71-11.232-.908-15.238-1.992-4.927-5.923-7.757-11.793-8.491l-9.853.389a2.747 2.747 0 0 0-2.568 2.127l-.126.547a1.887 1.887 0 0 0 1.05 2.139l2.671 1.228a1.887 1.887 0 0 1 1.048 2.151l-1.027 4.313z"/>
        </g>
    </g>
</svg>
